<svg width="1098" height="846" viewBox="0 0 1098 846" fill="none" xmlns="http://www.w3.org/2000/svg">
<rect width="1098" height="846" fill="white"/>
<g id="undraw_loading_frh4 1" clip-path="url(#clip0)">
<g id="pessoa">
<path id="Vector" opacity="0.1" d="M324 813.524C363.32 826.734 411.29 818.694 455.9 819.634C462.01 819.764 468.48 820.144 473.38 822.424C478.28 824.704 480.68 828.424 484.04 831.584C496.55 843.364 522.16 847.164 544.55 845.154C566.94 843.144 587.47 836.534 608.55 831.494C645.07 822.774 686.82 818.814 722.84 828.314C726.15 829.184 729.63 830.184 733.17 829.834C741.07 829.064 743.42 822.734 748.95 819.124C758.95 812.604 780.57 814.374 784.95 805.784C787.52 800.784 781.61 795.574 775.18 792.144C750.57 778.974 715.35 776.804 683.12 778.844C650.89 780.884 619.22 786.464 586.83 786.484C546.48 786.484 507.49 777.904 467.53 774.384C439.85 771.934 409.64 772.244 383.69 779.384C355.62 787.214 349.42 804.654 324 813.524Z" fill="#6C63FF"/>
<path id="Vector_2" d="M616.03 471L599.48 514.12L597.16 512.22L587.94 526.53L616.03 530.03V471Z" fill="#F1D2D7"/>
<path id="Vector_3" opacity="0.1" d="M616.01 471L599.45 514.12L595.29 513L587.91 526.53L616.01 530.03V471Z" fill="black"/>
<path id="Vector_4" d="M590.09 498.59H616.03L625.55 420.23H590.09V498.59Z" fill="#F1D2D7"/>
<path id="Vector_5" opacity="0.1" d="M590.09 498.59H616.03L625.55 420.23H590.09V498.59Z" fill="black"/>
<path id="Vector_6" d="M539.42 438.79L545.01 437.79L557.88 435.69C557.88 435.69 596.53 426.99 604.54 426.29C609.54 425.85 615.07 423.79 618.54 422.29C620.63 421.4 621.96 420.71 621.96 420.71L608.04 395.28L586.44 379.28C586.44 379.28 572.78 376.37 566.99 368.42C565.704 366.708 564.866 364.701 564.554 362.582C564.241 360.464 564.463 358.301 565.2 356.29C568.73 345.35 544.14 366.74 544.14 366.74C544.14 366.74 544.38 371.86 544.14 378.39C544.14 379.68 544.02 381.02 543.93 382.39C543.87 383.29 543.79 384.19 543.71 385.11C543.1 391.59 541.87 398.27 539.45 402.26C533.55 411.97 539.42 438.79 539.42 438.79Z" fill="#FFBEC7"/>
<path id="Vector_7" opacity="0.1" d="M544.12 378.88H544.66C545.66 378.88 546.43 376.8 547.39 376.7C555.08 375.96 562.1 374.35 566.98 368.91C565.696 367.197 564.86 365.19 564.548 363.072C564.235 360.954 564.456 358.791 565.19 356.78C568.72 345.84 544.19 367.22 544.19 367.22C544.19 367.22 544.38 372.34 544.12 378.88Z" fill="black"/>
<path id="Vector_8" d="M514.19 347.89C514.203 355.838 517.37 363.456 522.994 369.071C528.619 374.686 536.242 377.84 544.19 377.84C545.165 377.84 546.14 377.79 547.11 377.69C552.882 377.125 558.365 374.896 562.895 371.274C567.424 367.652 570.804 362.793 572.625 357.287C574.446 351.781 574.629 345.864 573.153 340.256C571.676 334.648 568.603 329.589 564.306 325.694C560.01 321.799 554.675 319.235 548.949 318.313C543.223 317.392 537.353 318.152 532.052 320.503C526.75 322.853 522.245 326.692 519.083 331.554C515.921 336.416 514.239 342.091 514.24 347.89H514.19Z" fill="#FFBEC7"/>
<path id="Vector_9" opacity="0.1" d="M514.19 347.89C514.203 355.838 517.37 363.456 522.994 369.071C528.619 374.686 536.242 377.84 544.19 377.84C545.165 377.84 546.14 377.79 547.11 377.69C547.643 377.471 548.116 377.128 548.49 376.69C548.838 376.157 549.067 375.554 549.16 374.924C549.253 374.294 549.209 373.651 549.03 373.04C547.85 367.19 542.54 362.99 540.63 357.33C538.95 352.33 540.21 346.66 542.79 342.04C545.37 337.42 549.18 333.61 552.94 329.87C553.571 329.136 554.366 328.561 555.26 328.19C558.46 327.19 563.26 329.99 565.8 327.13C561.652 322.843 556.32 319.89 550.485 318.648C544.651 317.406 538.578 317.932 533.044 320.158C527.51 322.384 522.765 326.21 519.415 331.146C516.066 336.082 514.264 341.905 514.24 347.87L514.19 347.89Z" fill="black"/>
<path id="Vector_10" d="M554.16 327.69C553.264 328.057 552.468 328.633 551.84 329.37C548.09 333.11 544.28 336.91 541.7 341.54C539.12 346.17 537.86 351.8 539.54 356.82C541.44 362.49 546.76 366.69 547.93 372.54C548.109 373.15 548.153 373.791 548.06 374.419C547.967 375.048 547.738 375.648 547.39 376.18C546.39 377.43 544.49 377.5 543.19 378.44C541.53 379.65 541.19 382.05 541.69 384.04C542.367 385.977 543.291 387.819 544.44 389.52C547.24 394.47 548.44 400.91 545.44 405.72C544.026 407.683 542.343 409.437 540.44 410.93C537.288 413.729 534.371 416.782 531.72 420.06C529.435 422.786 527.481 425.774 525.9 428.96C524.32 432.29 523.32 435.88 521.73 439.21C518 447 510.66 453.21 502.13 454.62C493.6 456.03 484.19 452.09 480 444.54C476.84 438.84 476.8 431.89 478.05 425.54C478.94 421 480.45 416.45 479.93 411.85C479.55 408.57 478.16 405.5 476.93 402.42C471.05 387.42 469.18 370.58 473.74 355.16C474.455 352.427 475.625 349.835 477.2 347.49C478.856 345.442 480.682 343.539 482.66 341.8C488.89 335.71 493.48 328.18 498.31 320.93C503.14 313.68 508.4 306.48 515.55 301.49C522.7 296.5 532.11 294.03 540.29 297.02C548.85 300.15 554.14 308.13 560.08 314.55C562.49 317.17 567.17 320.5 565.82 324.67C563.85 330.55 557.91 326.51 554.16 327.69Z" fill="#493545"/>
<path id="Vector_11" opacity="0.1" d="M500.55 453.19C509.07 451.78 516.41 445.57 520.14 437.77C521.74 434.45 522.73 430.86 524.32 427.53C525.898 424.344 527.849 421.357 530.13 418.63C532.787 415.352 535.707 412.295 538.86 409.49C540.766 408 542.45 406.246 543.86 404.28C546.86 399.47 545.71 393.03 542.92 388.09C541.772 386.384 540.845 384.539 540.16 382.6C539.64 380.6 540 378.21 541.66 377.01C542.97 376.07 544.85 376.01 545.87 374.75C546.218 374.218 546.447 373.618 546.54 372.989C546.633 372.361 546.589 371.72 546.41 371.11C545.23 365.25 539.91 361.06 538.01 355.39C536.33 350.39 537.58 344.73 540.17 340.1C542.76 335.47 546.55 331.69 550.27 327.93C550.904 327.198 551.703 326.626 552.6 326.26C556.34 325.08 562.29 329.12 564.21 323.21C565.56 319.04 560.88 315.7 558.47 313.09C553.36 307.56 548.72 300.88 542.06 297.09C549.87 300.51 554.93 308 560.56 314.09C562.97 316.7 567.65 320.03 566.3 324.2C564.38 330.11 558.43 326.07 554.69 327.25C553.792 327.619 552.994 328.195 552.36 328.93C548.61 332.67 544.81 336.47 542.22 341.1C539.63 345.73 538.38 351.36 540.06 356.39C541.96 362.05 547.28 366.25 548.46 372.1C548.639 372.71 548.683 373.351 548.59 373.979C548.497 374.608 548.268 375.208 547.92 375.74C546.92 376.99 545.01 377.06 543.71 378.01C542.05 379.21 541.71 381.61 542.21 383.6C542.886 385.539 543.814 387.382 544.97 389.08C547.76 394.03 548.97 400.47 545.91 405.28C544.497 407.243 542.814 408.997 540.91 410.49C537.759 413.294 534.84 416.347 532.18 419.62C529.9 422.348 527.95 425.335 526.37 428.52C524.78 431.86 523.79 435.44 522.19 438.77C518.46 446.56 511.12 452.77 502.6 454.18C497.563 454.97 492.407 454.032 487.97 451.52C491.917 453.269 496.283 453.849 500.55 453.19V453.19Z" fill="black"/>
<path id="Vector_12" d="M532.28 802.69L537.51 806.14L538.3 806.67L538.46 806.78L544.65 810.87L559.09 813.31L571.81 812.44C571.81 812.44 575.47 804.78 569.72 804.95C567.875 804.862 566.074 804.348 564.46 803.45L563.68 803.04C562.85 802.6 562.01 802.11 561.2 801.59C559.5 800.51 557.89 799.34 556.58 798.33C554.68 796.86 553.41 795.74 553.41 795.74L532.28 802.69Z" fill="#FFBEC7"/>
<path id="Vector_13" opacity="0.1" d="M537.55 806.16L538.34 806.69L538.5 806.8L544.69 810.89L559.13 813.33L571.85 812.46C571.85 812.46 575.51 804.8 569.76 804.97C567.915 804.882 566.114 804.368 564.5 803.47C565.421 804.005 566.128 804.842 566.5 805.84C566.73 807.84 557.1 811.34 557.1 811.34L543.51 807.75C543.51 807.75 541.2 807.1 538.03 806.28L537.73 806.2L537.55 806.16Z" fill="black"/>
<path id="Vector_14" d="M514.35 809.5C514.35 809.5 525.49 811.93 532.98 811.24C540.47 810.55 553.35 817.02 553.35 817.02C553.35 817.02 557.71 819.02 571.11 819.95C584.51 820.88 584.55 814.02 584.55 814.02C583.01 804.77 561.84 801.67 561.17 801.59C561.44 801.73 562.51 802.3 563.65 803.04C565.15 804.04 566.78 805.31 566.9 806.34C567.13 808.34 557.5 811.84 557.5 811.84L543.92 808.26C543.92 808.26 541.61 807.6 538.43 806.78L538.13 806.7C533.45 805.407 528.694 804.405 523.89 803.7C518.04 803.08 515.04 808.06 514.43 809.21C514.38 809.42 514.35 809.5 514.35 809.5Z" fill="#BD577A"/>
<path id="Vector_15" d="M338.83 563.81L344.75 568.34C344.75 568.34 346.47 568.26 349.03 568.17H349.85C353.53 568.04 358.59 567.91 362.9 567.9C366.9 567.9 370.22 568.02 371.22 568.37C374.22 569.37 379.4 551.48 379.4 551.48L373.46 550.08L371.46 549.62L370.08 549.3L365.26 548.17L350.63 549.82L340.36 556.44L338.83 563.81Z" fill="#FFBEC7"/>
<path id="Vector_16" opacity="0.1" d="M338.83 563.81L344.75 568.34C344.75 568.34 346.47 568.26 349.03 568.17C347.859 567.71 346.896 566.839 346.32 565.72C342.49 555.1 361.47 550.58 361.47 550.58L370.31 550.19L372.02 550.12L373.46 550.05L371.46 549.59L370.08 549.27L365.26 548.14L350.63 549.79L340.36 556.41L338.83 563.81Z" fill="black"/>
<path id="Vector_17" d="M327.16 568.59C330.74 571.91 354.16 568.65 355.16 568.51C353.379 568.714 351.576 568.588 349.84 568.14C346.57 567.22 345.78 565.2 345.78 565.2C341.96 554.58 360.93 550.05 360.93 550.05L369.78 549.67L371.49 549.59L392.97 548.66L394.02 542.74C394.02 542.74 387.02 543.41 376.08 544.28C369.91 544.78 362.47 545.34 354.32 545.87C331.67 547.37 326.32 562.07 326.32 562.07C326.32 562.07 323.55 565.2 327.16 568.59Z" fill="#BD577A"/>
<path id="Vector_18" d="M590.1 312.15C590.248 312.469 590.418 312.776 590.61 313.07L595.84 320.73L609.42 322.13L609.57 316.75L611.85 235.75C611.85 235.75 621.26 181.42 603.5 184.56C585.74 187.7 596.88 235.75 596.88 235.75C596.88 235.75 594.88 260.13 593.43 267.44C592.06 274.5 585.86 303.22 590.1 312.15Z" fill="#FFBEC7"/>
<path id="Vector_19" d="M559.62 513.31L563.48 519.93L572.13 534.73C572.13 534.73 587.83 540.48 591.83 536.12C594.04 533.72 596.41 525.39 598.08 518.4C599.45 512.71 600.36 507.91 600.36 507.91L559.62 513.31Z" fill="#FFBEC7"/>
<path id="Vector_20" opacity="0.1" d="M559.62 513.31L563.48 519.93C563.726 519.719 563.95 519.485 564.15 519.23C568.51 513.65 587.76 518.05 598.08 518.4C599.45 512.71 600.36 507.91 600.36 507.91L559.62 513.31Z" fill="black"/>
<path id="Vector_21" opacity="0.1" d="M362.9 567.87C366.9 567.87 370.22 567.99 371.22 568.34C374.22 569.34 379.4 551.45 379.4 551.45L371.55 549.59L393.03 548.66L394.08 542.74C394.08 542.74 387.08 543.41 376.14 544.28C373.86 545.578 371.828 547.271 370.14 549.28L369.81 549.68C365.24 555.29 363.55 562.53 362.9 567.87Z" fill="black"/>
<path id="Vector_22" opacity="0.1" d="M532.28 802.69L538.28 806.69C547.28 805.07 555.49 802.52 556.46 798.53C556.464 798.463 556.464 798.397 556.46 798.33C554.56 796.86 553.29 795.74 553.29 795.74L532.28 802.69Z" fill="black"/>
<path id="Vector_23" opacity="0.1" d="M514.46 809.26C522.403 808.874 530.316 808.026 538.16 806.72C533.48 805.427 528.724 804.425 523.92 803.72C518.07 803.13 515.07 808.11 514.46 809.26Z" fill="black"/>
<path id="Vector_24" d="M363.55 574.78C363.55 579.13 375.55 581.92 375.55 581.92L412.12 614.48C412.12 614.48 435.12 624.75 449.73 639.55C464.34 654.35 477.26 641.69 477.26 641.69C492.75 637.86 537.33 583.88 537.33 583.88C537.33 583.88 538.38 645.52 540.47 650.05C542.56 654.58 539.77 666.94 538.55 672.17C537.33 677.4 537.68 685.4 537.68 685.4C537.68 685.4 520.96 749.3 522.36 754.87C523.76 760.44 513.3 786.56 513.3 786.56V808.33C513.3 808.33 554.22 806.76 556.48 797.53C558.74 788.3 546.21 784.3 546.21 784.3V781.99C554.39 777.81 555.96 749.08 555.96 749.08C555.96 749.08 568.15 713.55 569.89 707.69C571.63 701.83 569.89 692.88 569.89 692.88L571.11 685.22C571.11 685.22 573.72 680 573.72 678.96C574.073 676.302 575.106 673.781 576.72 671.64C578.64 669.38 574.63 663.98 574.63 663.98L578.12 654.98V645.05L586.3 609.05C586.3 609.05 594.83 567.05 591.87 553.33C588.91 539.61 595.36 532.6 595.36 532.6C581.36 539.94 574.36 523.6 572.03 516.6C571.43 514.79 571.15 513.6 571.15 513.6C571.15 513.6 551.96 506.52 534.08 508.2C530.453 508.506 526.878 509.265 523.44 510.46C503.59 517.6 500.44 547.2 500.44 547.2L482.85 574.02C473.85 597.87 460.21 600.31 460.21 600.31C460.21 600.31 428.35 578.89 427.48 577.85C426.61 576.81 414.42 571.58 414.42 571.58C412.987 569.052 410.793 567.04 408.15 565.83C403.97 564.09 403.63 557.65 403.63 557.65C403.1 542.5 394.22 541.28 394.22 541.28C363.38 538.56 363.55 570.43 363.55 574.78Z" fill="#E7AEB8"/>
<path id="Vector_25" d="M540.81 489.63H559.62V431.3H540.81V489.63Z" fill="#F1D2D7"/>
<path id="Vector_26" opacity="0.1" d="M539.07 487.24H557.88V428.91H539.07V487.24Z" fill="black"/>
<path id="Vector_27" opacity="0.1" d="M590.09 312.02C590.088 312.063 590.088 312.107 590.09 312.15C590.238 312.469 590.408 312.776 590.6 313.07L595.83 320.73L609.41 322.13L609.56 316.75C605.32 316.38 595.68 315.22 590.09 312.02Z" fill="black"/>
<path id="Vector_28" d="M590.61 313.07C590.61 313.07 591.31 343.71 583.61 347.89C575.91 352.07 572.97 373.89 572.97 373.89C572.97 373.89 596.15 389.17 601.37 395.89C606.59 402.61 618.43 418.62 616 422.45C613.57 426.28 621.96 443.69 621.96 443.69C621.96 443.69 606.63 475.04 610.12 486.88C613.61 498.72 613.95 530.06 613.95 530.06H620.55C620.55 530.06 618.46 504.29 618.46 493.84C618.46 483.39 625.46 446.13 625.46 446.13C625.46 446.13 628.59 409.56 625.46 408.52C622.33 407.48 603.87 392.85 602.46 386.23C601.05 379.61 612.21 317.97 612.21 317.97C612.21 317.97 597.93 317.25 590.61 313.07Z" fill="#F1D2D7"/>
<path id="Vector_29" opacity="0.1" d="M540.47 425.9C541.098 430.162 542.648 434.237 545.01 437.84L557.88 435.69C557.88 435.69 596.53 426.99 604.54 426.29C609.54 425.85 615.07 423.79 618.54 422.29C615.481 411.438 609.5 401.635 601.25 393.95L596.34 389.4C589.102 382.704 580.732 377.347 571.62 373.58C572.19 374.07 612.74 408.69 603.86 415.48C594.98 422.27 571.09 405.69 571.09 405.69L543.9 382.33L542.9 381.48L541.32 383.92C542.124 384.253 542.908 384.63 543.67 385.05C552.914 390.147 559.769 398.691 562.74 408.82C568.35 427.62 540.47 425.9 540.47 425.9Z" fill="black"/>
<path id="Vector_30" opacity="0.1" d="M532.11 512.96C532.11 512.96 557.88 527.24 564.11 519.23C565.49 517.47 568.35 516.7 571.95 516.49C571.35 514.68 571.07 513.49 571.07 513.49C571.07 513.49 551.88 506.41 534 508.09C532.85 511.06 532.11 512.96 532.11 512.96Z" fill="black"/>
<path id="Vector_31" d="M543.96 381.5L572.13 405.69C572.13 405.69 595.95 422.29 604.89 415.45C613.83 408.61 572.65 373.54 572.65 373.54C581.768 377.302 590.142 382.659 597.38 389.36L602.29 393.91C615.19 405.86 618.1 405.86 618.53 423.44C618.64 427.76 617.17 433.98 616.04 435.11C611.86 439.25 608.92 468.97 609.57 472.45C610.22 475.93 601.76 505.99 604.57 514.35C607.38 522.71 570.45 510.17 564.18 518.18C557.91 526.19 532.18 511.91 532.18 511.91C532.18 511.91 546.46 475.34 549.94 472.91C553.42 470.48 557.6 451.66 549.94 442.91C542.28 434.16 541.55 425.9 541.55 425.9C541.55 425.9 569.43 427.63 563.84 408.84C562.268 403.394 559.541 398.352 555.845 394.055C552.148 389.758 547.57 386.308 542.42 383.94L543.96 381.5Z" fill="#E8E8F0"/>
<path id="Vector_32" d="M430.42 262.92C430.42 262.92 435.64 276.16 439.82 280.68C444 285.2 474.99 330.48 474.99 330.48L477.62 335.91L479.87 340.58L499.72 338.49L501.11 330.49L500.35 329.56C498.35 327.17 492.92 320.75 489.27 317.95C484.75 314.47 475.69 302.95 475.69 302.95C475.69 302.95 447.48 273.69 445.4 265.69C443.32 257.69 415.1 209.62 408.83 217.98C402.56 226.34 430.42 262.92 430.42 262.92Z" fill="#FFBEC7"/>
<path id="Vector_33" opacity="0.1" d="M477.62 335.91L479.87 340.58L499.72 338.49L501.11 330.49L500.35 329.56C498.21 330.61 482.34 338.22 477.62 335.91Z" fill="black"/>
<path id="Vector_34" opacity="0.1" d="M550.91 388.29C550.91 388.29 546.04 380.63 543.25 382.72C540.46 384.81 539.38 376.45 537.83 377.84C536.28 379.23 531.58 383.12 529.67 377.68C528.15 373.36 511.67 346.06 504.95 335.06L502.16 330.48C502.16 330.48 483.35 339.89 478.83 336.75V343.37L482.66 343.72L503.2 382.02C503.2 382.02 509.66 392.27 509.2 395.86C508.74 399.45 517.46 415.11 518.85 416.15C520.24 417.19 535.22 434.61 535.22 434.61C535.22 434.61 542.88 472.22 536.22 482.67C529.56 493.12 518.11 500.78 518.11 500.78C518.11 500.78 514.66 510.87 515.11 511.92C515.56 512.97 511.11 517.49 513.18 518.92C515.25 520.35 518.06 530.07 518.06 530.07C518.06 530.07 527.81 514.4 533.06 511.96C538.31 509.52 545.06 477.48 545.06 477.48C545.06 477.48 546.98 458.59 547.14 446.4C547.3 434.21 546.73 388.29 550.91 388.29Z" fill="black"/>
<path id="Vector_35" d="M549.87 388.29C549.87 388.29 544.99 380.63 542.21 382.72C539.43 384.81 538.34 376.45 536.79 377.84C535.24 379.23 530.54 383.12 528.63 377.68C527.1 373.36 510.63 346.06 503.91 335.06C502.19 332.23 501.11 330.48 501.11 330.48C501.11 330.48 482.31 339.89 477.78 336.75V343.37L481.61 343.72L502.16 382.02C502.16 382.02 508.61 392.27 508.16 395.86C507.71 399.45 516.43 415.11 517.82 416.15C519.21 417.19 534.19 434.61 534.19 434.61C534.19 434.61 541.85 472.22 535.19 482.67C531.688 487.909 527.428 492.6 522.55 496.59C518.477 499.974 515.614 504.588 514.39 509.74C514.155 510.441 514.073 511.185 514.15 511.92C514.66 512.92 510.15 517.49 512.22 518.92C514.29 520.35 517.09 530.07 517.09 530.07C517.09 530.07 526.84 514.4 532.09 511.96C537.34 509.52 544.09 477.48 544.09 477.48C544.09 477.48 546 458.59 546.16 446.4C546.32 434.21 545.69 388.29 549.87 388.29Z" fill="#F1D2D7"/>
<path id="Vector_36" opacity="0.1" d="M537.33 583.83C537.33 583.83 552.65 596.54 549.87 608.04C547.09 619.54 540.07 648.44 540.07 648.44L537.33 583.83Z" fill="black"/>
<path id="Vector_37" opacity="0.1" d="M527.93 382.69C527.93 382.69 527.35 388.96 518.59 391.4C509.83 393.84 508.17 395.83 508.17 395.83" fill="black"/>
<path id="Vector_38" opacity="0.1" d="M505.24 337.25C505.24 337.25 493.69 345.47 481.61 343.72Z" fill="black"/>
<path id="Vector_39" opacity="0.1" d="M598.19 414.56C598.52 412.87 597.34 411.29 596.19 409.97L593.92 407.26C593.479 406.702 592.983 406.19 592.44 405.73C591.1 404.68 589.32 404.36 587.9 403.42" fill="black"/>
<path id="Vector_40" d="M576.23 43H428.95C418.484 43 410 51.4842 410 61.95V209.23C410 219.696 418.484 228.18 428.95 228.18H576.23C586.696 228.18 595.18 219.696 595.18 209.23V61.95C595.18 51.4842 586.696 43 576.23 43Z" fill="#E7AEB8"/>
</g>
<g id="loading">
<path id="Vector_41" d="M475.03 148.922C472.485 148.921 470.018 149.802 468.049 151.416C466.081 153.03 464.733 155.276 464.236 157.772C463.738 160.268 464.122 162.86 465.321 165.105C466.52 167.35 468.461 169.11 470.812 170.084C473.164 171.059 475.78 171.187 478.216 170.449C480.652 169.71 482.756 168.15 484.17 166.033C485.584 163.917 486.22 161.376 485.97 158.843C485.721 156.31 484.6 153.942 482.8 152.142C481.791 151.107 480.581 150.288 479.246 149.734C477.91 149.181 476.476 148.904 475.03 148.922V148.922Z" fill="#EAEAF3"/>
<path id="Vector_42" d="M472.58 125.712C472.589 122.867 471.611 120.107 469.813 117.902C468.014 115.698 465.507 114.186 462.718 113.624C459.929 113.062 457.031 113.485 454.519 114.821C452.007 116.156 450.037 118.322 448.943 120.949C447.85 123.576 447.702 126.5 448.525 129.224C449.347 131.948 451.089 134.302 453.453 135.884C455.817 137.467 458.658 138.18 461.489 137.903C464.321 137.625 466.968 136.374 468.98 134.362C470.14 133.243 471.058 131.898 471.677 130.41C472.296 128.923 472.603 127.324 472.58 125.712V125.712Z" fill="#EAEAF3"/>
<path id="Vector_43" d="M543.59 97.5021C545.008 97.4973 546.38 97.0013 547.473 96.0986C548.566 95.1958 549.312 93.9421 549.585 92.5509C549.857 91.1597 549.639 89.717 548.968 88.4685C548.296 87.22 547.213 86.2428 545.902 85.7034C544.591 85.1639 543.133 85.0955 541.778 85.5098C540.422 85.9241 539.252 86.7955 538.466 87.9756C537.681 89.1558 537.328 90.5717 537.47 91.9823C537.611 93.3929 538.236 94.711 539.24 95.7122C539.804 96.2924 540.481 96.7507 541.229 97.0586C541.977 97.3665 542.781 97.5175 543.59 97.5021Z" fill="#EAEAF3"/>
<path id="Vector_44" d="M475.03 77.9222C471.919 77.9265 468.906 79.0091 466.504 80.9855C464.101 82.962 462.458 85.7101 461.855 88.7618C461.251 91.8135 461.724 94.9802 463.192 97.7225C464.661 100.465 467.035 102.613 469.91 103.802C472.785 104.99 475.983 105.146 478.959 104.241C481.936 103.337 484.507 101.428 486.234 98.8412C487.962 96.2541 488.739 93.1481 488.434 90.0522C488.129 86.9563 486.76 84.062 484.56 81.8622C483.324 80.5901 481.841 79.5844 480.202 78.9068C478.563 78.2292 476.803 77.8941 475.03 77.9222V77.9222Z" fill="#EAEAF3"/>
<path id="Vector_45" d="M563.49 120.462C562.284 119.244 560.693 118.482 558.988 118.306C557.284 118.131 555.571 118.552 554.142 119.499C552.713 120.446 551.658 121.859 551.155 123.498C550.653 125.136 550.734 126.898 551.387 128.483C552.039 130.068 553.221 131.378 554.731 132.188C556.242 132.998 557.987 133.259 559.668 132.926C561.349 132.593 562.863 131.687 563.95 130.362C565.037 129.037 565.631 127.376 565.63 125.662C565.647 124.695 565.465 123.735 565.097 122.841C564.729 121.947 564.182 121.137 563.49 120.462V120.462Z" fill="#EAEAF3"/>
<path id="Vector_46" d="M543.59 151.372C541.592 151.349 539.648 152.02 538.09 153.272C536.532 154.523 535.458 156.277 535.05 158.234C534.642 160.19 534.927 162.227 535.856 163.996C536.784 165.766 538.298 167.158 540.14 167.934C541.981 168.711 544.035 168.823 545.95 168.253C547.865 167.682 549.522 166.464 550.639 164.807C551.755 163.149 552.261 161.156 552.069 159.166C551.878 157.177 551.002 155.317 549.59 153.902C548.813 153.097 547.88 152.457 546.849 152.023C545.818 151.588 544.709 151.366 543.59 151.372V151.372Z" fill="#EAEAF3"/>
<path id="Vector_47" d="M509.31 164.842C507.043 164.842 504.846 165.629 503.093 167.067C501.341 168.506 500.141 170.507 499.699 172.731C499.257 174.955 499.599 177.263 500.668 179.262C501.737 181.262 503.466 182.829 505.561 183.696C507.656 184.564 509.986 184.678 512.156 184.02C514.326 183.362 516.2 181.972 517.459 180.086C518.719 178.201 519.286 175.937 519.063 173.681C518.841 171.425 517.843 169.315 516.24 167.712C515.341 166.788 514.262 166.056 513.071 165.563C511.879 165.069 510.6 164.824 509.31 164.842V164.842Z" fill="#EAEAF3"/>
<path id="Vector_48" d="M509.31 62.0022C505.933 62.0202 502.667 63.2073 500.067 65.3616C497.467 67.5159 495.693 70.5044 495.048 73.8188C494.402 77.1332 494.924 80.5689 496.526 83.5416C498.128 86.5143 500.709 88.8404 503.832 90.1244C506.955 91.4085 510.427 91.5711 513.656 90.5846C516.886 89.5981 519.674 87.5235 521.546 84.7135C523.419 81.9035 524.26 78.5317 523.927 75.1715C523.594 71.8112 522.107 68.6701 519.72 66.2822C518.368 64.8969 516.747 63.8027 514.957 63.0667C513.167 62.3307 511.245 61.9684 509.31 62.0022V62.0022Z" fill="#EAEAF3"/>
</g>
</g>
<defs>
<clipPath id="clip0">
<rect width="1097.1" height="845.39" fill="white"/>
</clipPath>
</defs>
</svg>
